<svg xmlns="http://www.w3.org/2000/svg" width="300" height="301.39697" viewBox="0 0 300 301.39698"><defs><clipPath id="a" clipPathUnits="userSpaceOnUse"><path d="M54 611.24h154.62V766.7H54V611.24z"/></clipPath></defs><g clip-path="url(#a)" transform="matrix(1.94024 0 0 -1.94024 -104.773 1487.582)"><path d="M54 611.36h154.62V766.7H54V611.36z" style="fill:#ffda00;fill-opacity:1;fill-rule:nonzero;stroke:none"/></g><path d="m0 0 7.86 33.24-1.38.54v9.9h21.36V33.6l-1.38-.36L34.68-.18h3.24v-10.56H17.76V-.18H21l-1.56 6h-8.52l-1.68-6h3.72v-10.56h-16.5V0H0Zm15.18 25.68h-.12l-2.4-10.92h5.1l-2.58 10.92ZM44.04-.84V32.7h-3.6v10.44h21.84c8.52 0 15-5.82 15-14.52 0-5.16-2.52-9.96-6.48-12.18v-.3c4.44-1.74 7.02-5.82 7.02-12s-3.24-15.42-17.4-15.42H40.8V-.84h3.24zm19.8 27.9c0 4.14-1.74 5.64-5.46 5.64h-.9V21.6h1.2c2.94 0 5.16 1.56 5.16 5.46zm.3-21.36c0 4.44-2.34 6.3-5.1 6.3h-1.38V-.66h1.38c2.76 0 5.1 1.38 5.1 6.36zm52.38 2.04-10.08 1.2c-.66-8.4-3.06-9.24-5.94-9.24-3.9 0-5.1 6.12-5.1 16.92 0 11.64 1.86 15.96 5.28 15.96 4.44.12 5.94-3.3 5.94-10.14h8.4v20.88h-8.04v-2.88c-2.4 3.24-6 4.08-9.72 4.08-9.72 0-17.04-11.1-17.04-27.9 0-11.82 4.44-28.56 19.74-28.56 8.88 0 15.36 7.14 16.56 19.68zM35.16-46.02l5.1 21.72-.84.36v6.48h13.8v-6.66l-.84-.18 5.28-21.72h2.22v-6.84H46.74v6.84h2.04l-.84 3.9H42.3l-1.02-3.9h2.4v-6.84H32.94v6.84h2.22zm9.9 16.74L43.5-36.3h3.24l-1.68 7.02zm-48.6-16.74v-6.84H7.02v6.84H4.98v16.44l6.12-23.28h2.04l5.82 22.92h.18V-46.2h-2.22v-6.66h12.6v6.66h-2.4v22.08h2.4v6.66h-12.6l-3.6-13.5-3.6 13.5H-3.72v-6.48h2.7v-22.08h-2.52zm68.4-.36v22.26h-2.4v6.48h11.28c6.3 0 10.02-1.32 12.06-4.26 1.56-2.04 1.74-4.08 1.74-6.18 0-2.7-1.56-6.48-5.64-7.86L87-46.38h2.22v-6.48h-7.98l-7.5 15.24v-8.76h1.86v-6.48H62.46v6.48h2.4zM78-28.56c0 2.7-1.56 4.26-3.24 4.26h-1.02v-9.24h.84c1.86 0 3.42 1.38 3.42 4.98zm38.7-2.94-.66 14.04H91.8l-.66-14.04h5.1l1.2 7.2h2.04v-22.08h-2.4v-6.48h13.8v6.48h-2.52v22.08h2.04l1.38-7.2" style="fill:#e21b13;fill-opacity:1;fill-rule:nonzero;stroke:none" transform="matrix(1.94024 0 0 -1.94024 40.28 142.608)"/></svg>